<?xml version="1.0" encoding="UTF-8" standalone="no"?><svg xmlns="http://www.w3.org/2000/svg" xmlns:xlink="http://www.w3.org/1999/xlink" contentScriptType="application/ecmascript" contentStyleType="text/css" height="593px" preserveAspectRatio="none" style="width:2850px;height:593px;" version="1.1" viewBox="0 0 2850 593" width="2850px" zoomAndPan="magnify"><defs><filter height="300%" id="fpapplljx997v" width="300%" x="-1" y="-1"><feGaussianBlur result="blurOut" stdDeviation="2.0"/><feColorMatrix in="blurOut" result="blurOut2" type="matrix" values="0 0 0 0 0 0 0 0 0 0 0 0 0 0 0 0 0 0 .4 0"/><feOffset dx="4.0" dy="4.0" in="blurOut2" result="blurOut3"/><feBlend in="SourceGraphic" in2="blurOut3" mode="normal"/></filter></defs><g><text fill="#000000" font-family="sans-serif" font-size="18" lengthAdjust="spacingAndGlyphs" textLength="362" x="1243.25" y="26.708">Calculate() operation - Calculator Class</text><ellipse cx="1434.75" cy="40.9531" fill="#000000" filter="url(#fpapplljx997v)" rx="10" ry="10" style="stroke: none; stroke-width: 1.0;"/><path d="M1491.25,75.3711 L1491.25,83.9375 L1471.25,87.9375 L1491.25,91.9375 L1491.25,100.5039 A0,0 0 0 0 1491.25,100.5039 L1687.25,100.5039 A0,0 0 0 0 1687.25,100.5039 L1687.25,85.3711 L1677.25,75.3711 L1491.25,75.3711 A0,0 0 0 0 1491.25,75.3711 " fill="#FBFB77" filter="url(#fpapplljx997v)" style="stroke: #A80036; stroke-width: 1.0;"/><path d="M1677.25,75.3711 L1677.25,85.3711 L1687.25,85.3711 L1677.25,75.3711 " fill="#FBFB77" style="stroke: #A80036; stroke-width: 1.0;"/><text fill="#000000" font-family="sans-serif" font-size="13" lengthAdjust="spacingAndGlyphs" textLength="175" x="1497.25" y="92.438">calculate(input)//parameter</text><rect fill="#FEFECE" filter="url(#fpapplljx997v)" height="33.9688" rx="12.5" ry="12.5" style="stroke: #A80036; stroke-width: 1.5;" width="73" x="1398.25" y="70.9531"/><text fill="#000000" font-family="sans-serif" font-size="12" lengthAdjust="spacingAndGlyphs" textLength="53" x="1408.25" y="92.0918">get Input</text><path d="M1027.25,129.3398 L1027.25,154.4727 A0,0 0 0 0 1027.25,154.4727 L1190.25,154.4727 A0,0 0 0 0 1190.25,154.4727 L1190.25,147.3398 L1210.25,141.9063 L1190.25,139.3398 L1190.25,139.3398 L1180.25,129.3398 L1027.25,129.3398 A0,0 0 0 0 1027.25,129.3398 " fill="#FBFB77" filter="url(#fpapplljx997v)" style="stroke: #A80036; stroke-width: 1.0;"/><path d="M1180.25,129.3398 L1180.25,139.3398 L1190.25,139.3398 L1180.25,129.3398 " fill="#FBFB77" style="stroke: #A80036; stroke-width: 1.0;"/><text fill="#000000" font-family="sans-serif" font-size="13" lengthAdjust="spacingAndGlyphs" textLength="142" x="1033.25" y="146.4067">declared at class level</text><rect fill="#FEFECE" filter="url(#fpapplljx997v)" height="33.9688" rx="12.5" ry="12.5" style="stroke: #A80036; stroke-width: 1.5;" width="449" x="1210.25" y="124.9219"/><text fill="#000000" font-family="sans-serif" font-size="12" lengthAdjust="spacingAndGlyphs" textLength="429" x="1220.25" y="146.0605">object data members: val:String,reg:String,tmpReg:boolean, reg:String</text><path d="M1584.25,183.3086 L1584.25,191.875 L1564.25,195.875 L1584.25,199.875 L1584.25,208.4414 A0,0 0 0 0 1584.25,208.4414 L1751.25,208.4414 A0,0 0 0 0 1751.25,208.4414 L1751.25,193.3086 L1741.25,183.3086 L1584.25,183.3086 A0,0 0 0 0 1584.25,183.3086 " fill="#FBFB77" filter="url(#fpapplljx997v)" style="stroke: #A80036; stroke-width: 1.0;"/><path d="M1741.25,183.3086 L1741.25,193.3086 L1751.25,193.3086 L1741.25,183.3086 " fill="#FBFB77" style="stroke: #A80036; stroke-width: 1.0;"/><text fill="#000000" font-family="sans-serif" font-size="13" lengthAdjust="spacingAndGlyphs" textLength="146" x="1590.25" y="200.3755">initialised at class level</text><rect fill="#FEFECE" filter="url(#fpapplljx997v)" height="33.9688" rx="12.5" ry="12.5" style="stroke: #A80036; stroke-width: 1.5;" width="259" x="1305.25" y="178.8906"/><text fill="#000000" font-family="sans-serif" font-size="12" lengthAdjust="spacingAndGlyphs" textLength="239" x="1315.25" y="200.0293">val= " ", reg= " ", op="", tmpReg=false</text><polygon fill="#FEFECE" filter="url(#fpapplljx997v)" points="32,232.8594,189,232.8594,201,244.8594,189,256.8594,32,256.8594,20,244.8594,32,232.8594" style="stroke: #A80036; stroke-width: 1.5;"/><text fill="#000000" font-family="sans-serif" font-size="11" lengthAdjust="spacingAndGlyphs" textLength="21" x="114.5" y="267.0698">yes</text><text fill="#000000" font-family="sans-serif" font-size="11" lengthAdjust="spacingAndGlyphs" textLength="153" x="32" y="248.6675">input is 0 to 9 &amp;&amp; !tmpReg</text><path d="M173.5,292.9878 L173.5,301.5542 L153.5,305.5542 L173.5,309.5542 L173.5,318.1206 A0,0 0 0 0 173.5,318.1206 L313.5,318.1206 A0,0 0 0 0 313.5,318.1206 L313.5,302.9878 L303.5,292.9878 L173.5,292.9878 A0,0 0 0 0 173.5,292.9878 " fill="#FBFB77" filter="url(#fpapplljx997v)" style="stroke: #A80036; stroke-width: 1.0;"/><path d="M303.5,292.9878 L303.5,302.9878 L313.5,302.9878 L303.5,292.9878 " fill="#FBFB77" style="stroke: #A80036; stroke-width: 1.0;"/><text fill="#000000" font-family="sans-serif" font-size="13" lengthAdjust="spacingAndGlyphs" textLength="119" x="179.5" y="310.0547">concatenate value</text><rect fill="#FEFECE" filter="url(#fpapplljx997v)" height="33.9688" rx="12.5" ry="12.5" style="stroke: #A80036; stroke-width: 1.5;" width="86" x="67.5" y="288.5698"/><text fill="#000000" font-family="sans-serif" font-size="12" lengthAdjust="spacingAndGlyphs" textLength="66" x="77.5" y="309.7085">val+=input</text><rect fill="#FEFECE" filter="url(#fpapplljx997v)" height="33.9688" rx="12.5" ry="12.5" style="stroke: #A80036; stroke-width: 1.5;" width="77" x="72" y="357.5386"/><text fill="#000000" font-family="sans-serif" font-size="12" lengthAdjust="spacingAndGlyphs" textLength="57" x="82" y="378.6772">return val</text><polygon fill="#FEFECE" filter="url(#fpapplljx997v)" points="345.5,232.8594,493.5,232.8594,505.5,244.8594,493.5,256.8594,345.5,256.8594,333.5,244.8594,345.5,232.8594" style="stroke: #A80036; stroke-width: 1.5;"/><text fill="#000000" font-family="sans-serif" font-size="11" lengthAdjust="spacingAndGlyphs" textLength="21" x="423.5" y="267.0698">yes</text><text fill="#000000" font-family="sans-serif" font-size="11" lengthAdjust="spacingAndGlyphs" textLength="148" x="345.5" y="248.6675">input is 0 to 9 &amp;&amp; tmpReg</text><path d="M484.5,292.9878 L484.5,301.5542 L464.5,305.5542 L484.5,309.5542 L484.5,318.1206 A0,0 0 0 0 484.5,318.1206 L640.5,318.1206 A0,0 0 0 0 640.5,318.1206 L640.5,302.9878 L630.5,292.9878 L484.5,292.9878 A0,0 0 0 0 484.5,292.9878 " fill="#FBFB77" filter="url(#fpapplljx997v)" style="stroke: #A80036; stroke-width: 1.0;"/><path d="M630.5,292.9878 L630.5,302.9878 L640.5,302.9878 L630.5,292.9878 " fill="#FBFB77" style="stroke: #A80036; stroke-width: 1.0;"/><text fill="#000000" font-family="sans-serif" font-size="13" lengthAdjust="spacingAndGlyphs" textLength="135" x="490.5" y="310.0547">concatenate tmpReg</text><rect fill="#FEFECE" filter="url(#fpapplljx997v)" height="33.9688" rx="12.5" ry="12.5" style="stroke: #A80036; stroke-width: 1.5;" width="90" x="374.5" y="288.5698"/><text fill="#000000" font-family="sans-serif" font-size="12" lengthAdjust="spacingAndGlyphs" textLength="70" x="384.5" y="309.7085">reg+=input</text><rect fill="#FEFECE" filter="url(#fpapplljx997v)" height="33.9688" rx="12.5" ry="12.5" style="stroke: #A80036; stroke-width: 1.5;" width="81" x="379" y="357.5386"/><text fill="#000000" font-family="sans-serif" font-size="12" lengthAdjust="spacingAndGlyphs" textLength="61" x="389" y="378.6772">return reg</text><polygon fill="#FEFECE" filter="url(#fpapplljx997v)" points="672.5,232.8594,924.5,232.8594,936.5,244.8594,924.5,256.8594,672.5,256.8594,660.5,244.8594,672.5,232.8594" style="stroke: #A80036; stroke-width: 1.5;"/><text fill="#000000" font-family="sans-serif" font-size="11" lengthAdjust="spacingAndGlyphs" textLength="21" x="802.5" y="267.0698">yes</text><text fill="#000000" font-family="sans-serif" font-size="11" lengthAdjust="spacingAndGlyphs" textLength="252" x="672.5" y="248.6675">input is "." &amp;&amp; !tmpReg &amp;&amp; !val.contains(".")</text><rect fill="#FEFECE" filter="url(#fpapplljx997v)" height="33.9688" rx="12.5" ry="12.5" style="stroke: #A80036; stroke-width: 1.5;" width="86" x="755.5" y="288.5698"/><text fill="#000000" font-family="sans-serif" font-size="12" lengthAdjust="spacingAndGlyphs" textLength="66" x="765.5" y="309.7085">val+=input</text><rect fill="#FEFECE" filter="url(#fpapplljx997v)" height="33.9688" rx="12.5" ry="12.5" style="stroke: #A80036; stroke-width: 1.5;" width="77" x="760" y="357.5386"/><text fill="#000000" font-family="sans-serif" font-size="12" lengthAdjust="spacingAndGlyphs" textLength="57" x="770" y="378.6772">return val</text><polygon fill="#FEFECE" filter="url(#fpapplljx997v)" points="968.5,232.8594,1211.5,232.8594,1223.5,244.8594,1211.5,256.8594,968.5,256.8594,956.5,244.8594,968.5,232.8594" style="stroke: #A80036; stroke-width: 1.5;"/><text fill="#000000" font-family="sans-serif" font-size="11" lengthAdjust="spacingAndGlyphs" textLength="21" x="1094" y="267.0698">yes</text><text fill="#000000" font-family="sans-serif" font-size="11" lengthAdjust="spacingAndGlyphs" textLength="243" x="968.5" y="248.6675">input is "." &amp;&amp; tmpReg &amp;&amp;!val.contains(".")</text><rect fill="#FEFECE" filter="url(#fpapplljx997v)" height="33.9688" rx="12.5" ry="12.5" style="stroke: #A80036; stroke-width: 1.5;" width="90" x="1045" y="288.5698"/><text fill="#000000" font-family="sans-serif" font-size="12" lengthAdjust="spacingAndGlyphs" textLength="70" x="1055" y="309.7085">reg+=input</text><rect fill="#FEFECE" filter="url(#fpapplljx997v)" height="33.9688" rx="12.5" ry="12.5" style="stroke: #A80036; stroke-width: 1.5;" width="81" x="1049.5" y="357.5386"/><text fill="#000000" font-family="sans-serif" font-size="12" lengthAdjust="spacingAndGlyphs" textLength="61" x="1059.5" y="378.6772">return reg</text><polygon fill="#FEFECE" filter="url(#fpapplljx997v)" points="1255.5,232.8594,1393.5,232.8594,1405.5,244.8594,1393.5,256.8594,1255.5,256.8594,1243.5,244.8594,1255.5,232.8594" style="stroke: #A80036; stroke-width: 1.5;"/><text fill="#000000" font-family="sans-serif" font-size="11" lengthAdjust="spacingAndGlyphs" textLength="21" x="1328.5" y="267.0698">yes</text><text fill="#000000" font-family="sans-serif" font-size="11" lengthAdjust="spacingAndGlyphs" textLength="134" x="1255.5" y="248.6675">input is op &amp;&amp; !tmpReg</text><rect fill="#FEFECE" filter="url(#fpapplljx997v)" height="33.9688" rx="12.5" ry="12.5" style="stroke: #A80036; stroke-width: 1.5;" width="75" x="1287" y="288.5698"/><text fill="#000000" font-family="sans-serif" font-size="12" lengthAdjust="spacingAndGlyphs" textLength="55" x="1297" y="309.7085">op=input</text><rect fill="#FEFECE" filter="url(#fpapplljx997v)" height="33.9688" rx="12.5" ry="12.5" style="stroke: #A80036; stroke-width: 1.5;" width="100" x="1274.5" y="357.5386"/><text fill="#000000" font-family="sans-serif" font-size="12" lengthAdjust="spacingAndGlyphs" textLength="80" x="1284.5" y="378.6772">tmpReg=true</text><rect fill="#FEFECE" filter="url(#fpapplljx997v)" height="33.9688" rx="12.5" ry="12.5" style="stroke: #A80036; stroke-width: 1.5;" width="61" x="1294" y="426.5073"/><text fill="#000000" font-family="sans-serif" font-size="12" lengthAdjust="spacingAndGlyphs" textLength="41" x="1304" y="447.646">reg=""</text><rect fill="#FEFECE" filter="url(#fpapplljx997v)" height="33.9688" rx="12.5" ry="12.5" style="stroke: #A80036; stroke-width: 1.5;" width="77" x="1286" y="480.4761"/><text fill="#000000" font-family="sans-serif" font-size="12" lengthAdjust="spacingAndGlyphs" textLength="57" x="1296" y="501.6147">return val</text><polygon fill="#FEFECE" filter="url(#fpapplljx997v)" points="1437.5,232.8594,1566.5,232.8594,1578.5,244.8594,1566.5,256.8594,1437.5,256.8594,1425.5,244.8594,1437.5,232.8594" style="stroke: #A80036; stroke-width: 1.5;"/><text fill="#000000" font-family="sans-serif" font-size="11" lengthAdjust="spacingAndGlyphs" textLength="21" x="1506" y="267.0698">yes</text><text fill="#000000" font-family="sans-serif" font-size="11" lengthAdjust="spacingAndGlyphs" textLength="129" x="1437.5" y="248.6675">input is op &amp;&amp; tmpReg</text><rect fill="#FEFECE" filter="url(#fpapplljx997v)" height="33.9688" rx="12.5" ry="12.5" style="stroke: #A80036; stroke-width: 1.5;" width="131" x="1436.5" y="288.5698"/><text fill="#000000" font-family="sans-serif" font-size="12" lengthAdjust="spacingAndGlyphs" textLength="111" x="1446.5" y="309.7085">perform operation</text><rect fill="#FEFECE" filter="url(#fpapplljx997v)" height="33.9688" rx="12.5" ry="12.5" style="stroke: #A80036; stroke-width: 1.5;" width="75" x="1464.5" y="357.5386"/><text fill="#000000" font-family="sans-serif" font-size="12" lengthAdjust="spacingAndGlyphs" textLength="55" x="1474.5" y="378.6772">op=input</text><rect fill="#FEFECE" filter="url(#fpapplljx997v)" height="33.9688" rx="12.5" ry="12.5" style="stroke: #A80036; stroke-width: 1.5;" width="61" x="1471.5" y="426.5073"/><text fill="#000000" font-family="sans-serif" font-size="12" lengthAdjust="spacingAndGlyphs" textLength="41" x="1481.5" y="447.646">reg=""</text><rect fill="#FEFECE" filter="url(#fpapplljx997v)" height="33.9688" rx="12.5" ry="12.5" style="stroke: #A80036; stroke-width: 1.5;" width="77" x="1463.5" y="480.4761"/><text fill="#000000" font-family="sans-serif" font-size="12" lengthAdjust="spacingAndGlyphs" textLength="57" x="1473.5" y="501.6147">return val</text><polygon fill="#FEFECE" filter="url(#fpapplljx997v)" points="1610.5,232.8594,1753.5,232.8594,1765.5,244.8594,1753.5,256.8594,1610.5,256.8594,1598.5,244.8594,1610.5,232.8594" style="stroke: #A80036; stroke-width: 1.5;"/><text fill="#000000" font-family="sans-serif" font-size="11" lengthAdjust="spacingAndGlyphs" textLength="21" x="1686" y="267.0698">yes</text><text fill="#000000" font-family="sans-serif" font-size="11" lengthAdjust="spacingAndGlyphs" textLength="139" x="1610.5" y="248.6675">input is "=" &amp;&amp; !tmpReg</text><rect fill="#FEFECE" filter="url(#fpapplljx997v)" height="33.9688" rx="12.5" ry="12.5" style="stroke: #A80036; stroke-width: 1.5;" width="77" x="1643.5" y="288.5698"/><text fill="#000000" font-family="sans-serif" font-size="12" lengthAdjust="spacingAndGlyphs" textLength="57" x="1653.5" y="309.7085">return val</text><polygon fill="#FEFECE" filter="url(#fpapplljx997v)" points="1797.5,232.8594,1931.5,232.8594,1943.5,244.8594,1931.5,256.8594,1797.5,256.8594,1785.5,244.8594,1797.5,232.8594" style="stroke: #A80036; stroke-width: 1.5;"/><text fill="#000000" font-family="sans-serif" font-size="11" lengthAdjust="spacingAndGlyphs" textLength="21" x="1868.5" y="267.0698">yes</text><text fill="#000000" font-family="sans-serif" font-size="11" lengthAdjust="spacingAndGlyphs" textLength="134" x="1797.5" y="248.6675">input is "=" &amp;&amp; tmpReg</text><rect fill="#FEFECE" filter="url(#fpapplljx997v)" height="33.9688" rx="12.5" ry="12.5" style="stroke: #A80036; stroke-width: 1.5;" width="131" x="1799" y="288.5698"/><text fill="#000000" font-family="sans-serif" font-size="12" lengthAdjust="spacingAndGlyphs" textLength="111" x="1809" y="309.7085">perform operation</text><rect fill="#FEFECE" filter="url(#fpapplljx997v)" height="33.9688" rx="12.5" ry="12.5" style="stroke: #A80036; stroke-width: 1.5;" width="61" x="1834" y="357.5386"/><text fill="#000000" font-family="sans-serif" font-size="12" lengthAdjust="spacingAndGlyphs" textLength="41" x="1844" y="378.6772">reg=""</text><rect fill="#FEFECE" filter="url(#fpapplljx997v)" height="33.9688" rx="12.5" ry="12.5" style="stroke: #A80036; stroke-width: 1.5;" width="77" x="1826" y="426.5073"/><text fill="#000000" font-family="sans-serif" font-size="12" lengthAdjust="spacingAndGlyphs" textLength="57" x="1836" y="447.646">return val</text><polygon fill="#FEFECE" filter="url(#fpapplljx997v)" points="1975.5,232.8594,2117.5,232.8594,2129.5,244.8594,2117.5,256.8594,1975.5,256.8594,1963.5,244.8594,1975.5,232.8594" style="stroke: #A80036; stroke-width: 1.5;"/><text fill="#000000" font-family="sans-serif" font-size="11" lengthAdjust="spacingAndGlyphs" textLength="21" x="2050.5" y="267.0698">yes</text><text fill="#000000" font-family="sans-serif" font-size="11" lengthAdjust="spacingAndGlyphs" textLength="138" x="1975.5" y="248.6675">input is "C" &amp;&amp; !tmpReg</text><rect fill="#FEFECE" filter="url(#fpapplljx997v)" height="33.9688" rx="12.5" ry="12.5" style="stroke: #A80036; stroke-width: 1.5;" width="57" x="2018" y="288.5698"/><text fill="#000000" font-family="sans-serif" font-size="12" lengthAdjust="spacingAndGlyphs" textLength="37" x="2028" y="309.7085">val=""</text><rect fill="#FEFECE" filter="url(#fpapplljx997v)" height="33.9688" rx="12.5" ry="12.5" style="stroke: #A80036; stroke-width: 1.5;" width="78" x="2007.5" y="357.5386"/><text fill="#000000" font-family="sans-serif" font-size="12" lengthAdjust="spacingAndGlyphs" textLength="58" x="2017.5" y="378.6772">return "0"</text><polygon fill="#FEFECE" filter="url(#fpapplljx997v)" points="2161.5,232.8594,2294.5,232.8594,2306.5,244.8594,2294.5,256.8594,2161.5,256.8594,2149.5,244.8594,2161.5,232.8594" style="stroke: #A80036; stroke-width: 1.5;"/><text fill="#000000" font-family="sans-serif" font-size="11" lengthAdjust="spacingAndGlyphs" textLength="21" x="2232" y="267.0698">yes</text><text fill="#000000" font-family="sans-serif" font-size="11" lengthAdjust="spacingAndGlyphs" textLength="133" x="2161.5" y="248.6675">input is "C" &amp;&amp; tmpReg</text><rect fill="#FEFECE" filter="url(#fpapplljx997v)" height="33.9688" rx="12.5" ry="12.5" style="stroke: #A80036; stroke-width: 1.5;" width="61" x="2197.5" y="288.5698"/><text fill="#000000" font-family="sans-serif" font-size="12" lengthAdjust="spacingAndGlyphs" textLength="41" x="2207.5" y="309.7085">reg=""</text><rect fill="#FEFECE" filter="url(#fpapplljx997v)" height="33.9688" rx="12.5" ry="12.5" style="stroke: #A80036; stroke-width: 1.5;" width="78" x="2189" y="357.5386"/><text fill="#000000" font-family="sans-serif" font-size="12" lengthAdjust="spacingAndGlyphs" textLength="58" x="2199" y="378.6772">return "0"</text><polygon fill="#FEFECE" filter="url(#fpapplljx997v)" points="2338.5,232.8594,2409.5,232.8594,2421.5,244.8594,2409.5,256.8594,2338.5,256.8594,2326.5,244.8594,2338.5,232.8594" style="stroke: #A80036; stroke-width: 1.5;"/><text fill="#000000" font-family="sans-serif" font-size="11" lengthAdjust="spacingAndGlyphs" textLength="21" x="2378" y="267.0698">yes</text><text fill="#000000" font-family="sans-serif" font-size="11" lengthAdjust="spacingAndGlyphs" textLength="71" x="2338.5" y="248.6675">input is "AC"</text><text fill="#000000" font-family="sans-serif" font-size="11" lengthAdjust="spacingAndGlyphs" textLength="14" x="2421.5" y="242.2651">no</text><rect fill="#FEFECE" filter="url(#fpapplljx997v)" height="33.9688" rx="12.5" ry="12.5" style="stroke: #A80036; stroke-width: 1.5;" width="57" x="2345.5" y="288.5698"/><text fill="#000000" font-family="sans-serif" font-size="12" lengthAdjust="spacingAndGlyphs" textLength="37" x="2355.5" y="309.7085">val=""</text><rect fill="#FEFECE" filter="url(#fpapplljx997v)" height="33.9688" rx="12.5" ry="12.5" style="stroke: #A80036; stroke-width: 1.5;" width="61" x="2343.5" y="357.5386"/><text fill="#000000" font-family="sans-serif" font-size="12" lengthAdjust="spacingAndGlyphs" textLength="41" x="2353.5" y="378.6772">reg=""</text><rect fill="#FEFECE" filter="url(#fpapplljx997v)" height="33.9688" rx="12.5" ry="12.5" style="stroke: #A80036; stroke-width: 1.5;" width="105" x="2321.5" y="426.5073"/><text fill="#000000" font-family="sans-serif" font-size="12" lengthAdjust="spacingAndGlyphs" textLength="85" x="2331.5" y="447.646">tmpReg=false</text><rect fill="#FEFECE" filter="url(#fpapplljx997v)" height="33.9688" rx="12.5" ry="12.5" style="stroke: #A80036; stroke-width: 1.5;" width="78" x="2335" y="480.4761"/><text fill="#000000" font-family="sans-serif" font-size="12" lengthAdjust="spacingAndGlyphs" textLength="58" x="2345" y="501.6147">return "0"</text><polygon fill="#FEFECE" filter="url(#fpapplljx997v)" points="2457.5,335.2183,2609.5,335.2183,2621.5,347.2183,2609.5,359.2183,2457.5,359.2183,2445.5,347.2183,2457.5,335.2183" style="stroke: #A80036; stroke-width: 1.5;"/><text fill="#000000" font-family="sans-serif" font-size="11" lengthAdjust="spacingAndGlyphs" textLength="21" x="2537.5" y="369.4287">yes</text><text fill="#000000" font-family="sans-serif" font-size="11" lengthAdjust="spacingAndGlyphs" textLength="152" x="2457.5" y="351.0264">tmpReg &amp;&amp; reg.length()&gt;0</text><rect fill="#FEFECE" filter="url(#fpapplljx997v)" height="33.9688" rx="12.5" ry="12.5" style="stroke: #A80036; stroke-width: 1.5;" width="81" x="2493" y="392.0229"/><text fill="#000000" font-family="sans-serif" font-size="12" lengthAdjust="spacingAndGlyphs" textLength="61" x="2503" y="413.1616">return reg</text><polygon fill="#FEFECE" filter="url(#fpapplljx997v)" points="2653.5,335.2183,2733.5,335.2183,2745.5,347.2183,2733.5,359.2183,2653.5,359.2183,2641.5,347.2183,2653.5,335.2183" style="stroke: #A80036; stroke-width: 1.5;"/><text fill="#000000" font-family="sans-serif" font-size="11" lengthAdjust="spacingAndGlyphs" textLength="21" x="2697.5" y="369.4287">yes</text><text fill="#000000" font-family="sans-serif" font-size="11" lengthAdjust="spacingAndGlyphs" textLength="80" x="2653.5" y="351.0264">val.length()&gt;0</text><rect fill="#FEFECE" filter="url(#fpapplljx997v)" height="33.9688" rx="12.5" ry="12.5" style="stroke: #A80036; stroke-width: 1.5;" width="77" x="2655" y="392.0229"/><text fill="#000000" font-family="sans-serif" font-size="12" lengthAdjust="spacingAndGlyphs" textLength="57" x="2665" y="413.1616">return val</text><rect fill="#FEFECE" filter="url(#fpapplljx997v)" height="33.9688" rx="12.5" ry="12.5" style="stroke: #A80036; stroke-width: 1.5;" width="78" x="2755.5" y="388.6206"/><text fill="#000000" font-family="sans-serif" font-size="12" lengthAdjust="spacingAndGlyphs" textLength="58" x="2765.5" y="409.7593">return "0"</text><ellipse cx="1434.75" cy="565.4448" fill="#FFFFFF" filter="url(#fpapplljx997v)" rx="11" ry="11" style="stroke: #000000; stroke-width: 1.0;"/><ellipse cx="1434.75" cy="565.4448" fill="#000000" rx="6" ry="6" style="stroke: #7F7F7F; stroke-width: 1.0;"/><line style="stroke: #A80036; stroke-width: 1.5;" x1="1434.75" x2="1434.75" y1="50.9531" y2="70.9531"/><polygon fill="#A80036" points="1430.75,60.9531,1434.75,70.9531,1438.75,60.9531,1434.75,64.9531" style="stroke: #A80036; stroke-width: 1.0;"/><line style="stroke: #A80036; stroke-width: 1.5;" x1="1434.75" x2="1434.75" y1="104.9219" y2="124.9219"/><polygon fill="#A80036" points="1430.75,114.9219,1434.75,124.9219,1438.75,114.9219,1434.75,118.9219" style="stroke: #A80036; stroke-width: 1.0;"/><line style="stroke: #A80036; stroke-width: 1.5;" x1="1434.75" x2="1434.75" y1="158.8906" y2="178.8906"/><polygon fill="#A80036" points="1430.75,168.8906,1434.75,178.8906,1438.75,168.8906,1434.75,172.8906" style="stroke: #A80036; stroke-width: 1.0;"/><line style="stroke: #A80036; stroke-width: 1.5;" x1="110.5" x2="110.5" y1="322.5386" y2="357.5386"/><polygon fill="#A80036" points="106.5,347.5386,110.5,357.5386,114.5,347.5386,110.5,351.5386" style="stroke: #A80036; stroke-width: 1.0;"/><line style="stroke: #A80036; stroke-width: 1.5;" x1="419.5" x2="419.5" y1="322.5386" y2="357.5386"/><polygon fill="#A80036" points="415.5,347.5386,419.5,357.5386,423.5,347.5386,419.5,351.5386" style="stroke: #A80036; stroke-width: 1.0;"/><line style="stroke: #A80036; stroke-width: 1.5;" x1="798.5" x2="798.5" y1="322.5386" y2="357.5386"/><polygon fill="#A80036" points="794.5,347.5386,798.5,357.5386,802.5,347.5386,798.5,351.5386" style="stroke: #A80036; stroke-width: 1.0;"/><line style="stroke: #A80036; stroke-width: 1.5;" x1="1090" x2="1090" y1="322.5386" y2="357.5386"/><polygon fill="#A80036" points="1086,347.5386,1090,357.5386,1094,347.5386,1090,351.5386" style="stroke: #A80036; stroke-width: 1.0;"/><line style="stroke: #A80036; stroke-width: 1.5;" x1="1324.5" x2="1324.5" y1="322.5386" y2="357.5386"/><polygon fill="#A80036" points="1320.5,347.5386,1324.5,357.5386,1328.5,347.5386,1324.5,351.5386" style="stroke: #A80036; stroke-width: 1.0;"/><line style="stroke: #A80036; stroke-width: 1.5;" x1="1324.5" x2="1324.5" y1="391.5073" y2="426.5073"/><polygon fill="#A80036" points="1320.5,416.5073,1324.5,426.5073,1328.5,416.5073,1324.5,420.5073" style="stroke: #A80036; stroke-width: 1.0;"/><line style="stroke: #A80036; stroke-width: 1.5;" x1="1324.5" x2="1324.5" y1="460.4761" y2="480.4761"/><polygon fill="#A80036" points="1320.5,470.4761,1324.5,480.4761,1328.5,470.4761,1324.5,474.4761" style="stroke: #A80036; stroke-width: 1.0;"/><line style="stroke: #A80036; stroke-width: 1.5;" x1="1502" x2="1502" y1="322.5386" y2="357.5386"/><polygon fill="#A80036" points="1498,347.5386,1502,357.5386,1506,347.5386,1502,351.5386" style="stroke: #A80036; stroke-width: 1.0;"/><line style="stroke: #A80036; stroke-width: 1.5;" x1="1502" x2="1502" y1="391.5073" y2="426.5073"/><polygon fill="#A80036" points="1498,416.5073,1502,426.5073,1506,416.5073,1502,420.5073" style="stroke: #A80036; stroke-width: 1.0;"/><line style="stroke: #A80036; stroke-width: 1.5;" x1="1502" x2="1502" y1="460.4761" y2="480.4761"/><polygon fill="#A80036" points="1498,470.4761,1502,480.4761,1506,470.4761,1502,474.4761" style="stroke: #A80036; stroke-width: 1.0;"/><line style="stroke: #A80036; stroke-width: 1.5;" x1="1864.5" x2="1864.5" y1="322.5386" y2="357.5386"/><polygon fill="#A80036" points="1860.5,347.5386,1864.5,357.5386,1868.5,347.5386,1864.5,351.5386" style="stroke: #A80036; stroke-width: 1.0;"/><line style="stroke: #A80036; stroke-width: 1.5;" x1="1864.5" x2="1864.5" y1="391.5073" y2="426.5073"/><polygon fill="#A80036" points="1860.5,416.5073,1864.5,426.5073,1868.5,416.5073,1864.5,420.5073" style="stroke: #A80036; stroke-width: 1.0;"/><line style="stroke: #A80036; stroke-width: 1.5;" x1="2046.5" x2="2046.5" y1="322.5386" y2="357.5386"/><polygon fill="#A80036" points="2042.5,347.5386,2046.5,357.5386,2050.5,347.5386,2046.5,351.5386" style="stroke: #A80036; stroke-width: 1.0;"/><line style="stroke: #A80036; stroke-width: 1.5;" x1="2228" x2="2228" y1="322.5386" y2="357.5386"/><polygon fill="#A80036" points="2224,347.5386,2228,357.5386,2232,347.5386,2228,351.5386" style="stroke: #A80036; stroke-width: 1.0;"/><line style="stroke: #A80036; stroke-width: 1.5;" x1="2374" x2="2374" y1="322.5386" y2="357.5386"/><polygon fill="#A80036" points="2370,347.5386,2374,357.5386,2378,347.5386,2374,351.5386" style="stroke: #A80036; stroke-width: 1.0;"/><line style="stroke: #A80036; stroke-width: 1.5;" x1="2374" x2="2374" y1="391.5073" y2="426.5073"/><polygon fill="#A80036" points="2370,416.5073,2374,426.5073,2378,416.5073,2374,420.5073" style="stroke: #A80036; stroke-width: 1.0;"/><line style="stroke: #A80036; stroke-width: 1.5;" x1="2374" x2="2374" y1="460.4761" y2="480.4761"/><polygon fill="#A80036" points="2370,470.4761,2374,480.4761,2378,470.4761,2374,474.4761" style="stroke: #A80036; stroke-width: 1.0;"/><line style="stroke: #A80036; stroke-width: 1.5;" x1="2533.5" x2="2533.5" y1="359.2183" y2="392.0229"/><polygon fill="#A80036" points="2529.5,382.0229,2533.5,392.0229,2537.5,382.0229,2533.5,386.0229" style="stroke: #A80036; stroke-width: 1.0;"/><line style="stroke: #A80036; stroke-width: 1.5;" x1="2533.5" x2="2533.5" y1="425.9917" y2="485.9917"/><polygon fill="#A80036" points="2529.5,475.9917,2533.5,485.9917,2537.5,475.9917,2533.5,479.9917" style="stroke: #A80036; stroke-width: 1.0;"/><line style="stroke: #A80036; stroke-width: 1.5;" x1="2693.5" x2="2693.5" y1="359.2183" y2="392.0229"/><polygon fill="#A80036" points="2689.5,382.0229,2693.5,392.0229,2697.5,382.0229,2693.5,386.0229" style="stroke: #A80036; stroke-width: 1.0;"/><line style="stroke: #A80036; stroke-width: 1.5;" x1="2693.5" x2="2693.5" y1="425.9917" y2="485.9917"/><polygon fill="#A80036" points="2689.5,475.9917,2693.5,485.9917,2697.5,475.9917,2693.5,479.9917" style="stroke: #A80036; stroke-width: 1.0;"/><line style="stroke: #A80036; stroke-width: 1.5;" x1="2621.5" x2="2641.5" y1="347.2183" y2="347.2183"/><polygon fill="#A80036" points="2631.5,343.2183,2641.5,347.2183,2631.5,351.2183,2635.5,347.2183" style="stroke: #A80036; stroke-width: 1.0;"/><line style="stroke: #A80036; stroke-width: 1.5;" x1="2421.5" x2="2533.5" y1="244.8594" y2="244.8594"/><line style="stroke: #A80036; stroke-width: 1.5;" x1="2533.5" x2="2533.5" y1="244.8594" y2="335.2183"/><polygon fill="#A80036" points="2529.5,325.2183,2533.5,335.2183,2537.5,325.2183,2533.5,329.2183" style="stroke: #A80036; stroke-width: 1.0;"/><line style="stroke: #A80036; stroke-width: 1.5;" x1="2745.5" x2="2794.5" y1="347.2183" y2="347.2183"/><line style="stroke: #A80036; stroke-width: 1.5;" x1="2794.5" x2="2794.5" y1="347.2183" y2="388.6206"/><polygon fill="#A80036" points="2790.5,378.6206,2794.5,388.6206,2798.5,378.6206,2794.5,382.6206" style="stroke: #A80036; stroke-width: 1.0;"/><line style="stroke: #A80036; stroke-width: 1.5;" x1="2794.5" x2="2794.5" y1="422.5894" y2="485.9917"/><polygon fill="#A80036" points="2790.5,475.9917,2794.5,485.9917,2798.5,475.9917,2794.5,479.9917" style="stroke: #A80036; stroke-width: 1.0;"/><line style="stroke: #A80036; stroke-width: 1.5;" x1="2533.5" x2="2794.5" y1="485.9917" y2="485.9917"/><line style="stroke: #A80036; stroke-width: 1.5;" x1="110.5" x2="110.5" y1="256.8594" y2="288.5698"/><polygon fill="#A80036" points="106.5,278.5698,110.5,288.5698,114.5,278.5698,110.5,282.5698" style="stroke: #A80036; stroke-width: 1.0;"/><line style="stroke: #A80036; stroke-width: 1.5;" x1="110.5" x2="110.5" y1="391.5073" y2="534.4448"/><polygon fill="#A80036" points="106.5,524.4448,110.5,534.4448,114.5,524.4448,110.5,528.4448" style="stroke: #A80036; stroke-width: 1.0;"/><line style="stroke: #A80036; stroke-width: 1.5;" x1="419.5" x2="419.5" y1="256.8594" y2="288.5698"/><polygon fill="#A80036" points="415.5,278.5698,419.5,288.5698,423.5,278.5698,419.5,282.5698" style="stroke: #A80036; stroke-width: 1.0;"/><line style="stroke: #A80036; stroke-width: 1.5;" x1="419.5" x2="419.5" y1="391.5073" y2="534.4448"/><polygon fill="#A80036" points="415.5,524.4448,419.5,534.4448,423.5,524.4448,419.5,528.4448" style="stroke: #A80036; stroke-width: 1.0;"/><line style="stroke: #A80036; stroke-width: 1.5;" x1="798.5" x2="798.5" y1="256.8594" y2="288.5698"/><polygon fill="#A80036" points="794.5,278.5698,798.5,288.5698,802.5,278.5698,798.5,282.5698" style="stroke: #A80036; stroke-width: 1.0;"/><line style="stroke: #A80036; stroke-width: 1.5;" x1="798.5" x2="798.5" y1="391.5073" y2="534.4448"/><polygon fill="#A80036" points="794.5,524.4448,798.5,534.4448,802.5,524.4448,798.5,528.4448" style="stroke: #A80036; stroke-width: 1.0;"/><line style="stroke: #A80036; stroke-width: 1.5;" x1="1090" x2="1090" y1="256.8594" y2="288.5698"/><polygon fill="#A80036" points="1086,278.5698,1090,288.5698,1094,278.5698,1090,282.5698" style="stroke: #A80036; stroke-width: 1.0;"/><line style="stroke: #A80036; stroke-width: 1.5;" x1="1090" x2="1090" y1="391.5073" y2="534.4448"/><polygon fill="#A80036" points="1086,524.4448,1090,534.4448,1094,524.4448,1090,528.4448" style="stroke: #A80036; stroke-width: 1.0;"/><line style="stroke: #A80036; stroke-width: 1.5;" x1="1324.5" x2="1324.5" y1="256.8594" y2="288.5698"/><polygon fill="#A80036" points="1320.5,278.5698,1324.5,288.5698,1328.5,278.5698,1324.5,282.5698" style="stroke: #A80036; stroke-width: 1.0;"/><line style="stroke: #A80036; stroke-width: 1.5;" x1="1324.5" x2="1324.5" y1="514.4448" y2="534.4448"/><polygon fill="#A80036" points="1320.5,524.4448,1324.5,534.4448,1328.5,524.4448,1324.5,528.4448" style="stroke: #A80036; stroke-width: 1.0;"/><line style="stroke: #A80036; stroke-width: 1.5;" x1="1502" x2="1502" y1="256.8594" y2="288.5698"/><polygon fill="#A80036" points="1498,278.5698,1502,288.5698,1506,278.5698,1502,282.5698" style="stroke: #A80036; stroke-width: 1.0;"/><line style="stroke: #A80036; stroke-width: 1.5;" x1="1502" x2="1502" y1="514.4448" y2="534.4448"/><polygon fill="#A80036" points="1498,524.4448,1502,534.4448,1506,524.4448,1502,528.4448" style="stroke: #A80036; stroke-width: 1.0;"/><line style="stroke: #A80036; stroke-width: 1.5;" x1="1682" x2="1682" y1="256.8594" y2="288.5698"/><polygon fill="#A80036" points="1678,278.5698,1682,288.5698,1686,278.5698,1682,282.5698" style="stroke: #A80036; stroke-width: 1.0;"/><line style="stroke: #A80036; stroke-width: 1.5;" x1="1682" x2="1682" y1="322.5386" y2="534.4448"/><polygon fill="#A80036" points="1678,524.4448,1682,534.4448,1686,524.4448,1682,528.4448" style="stroke: #A80036; stroke-width: 1.0;"/><line style="stroke: #A80036; stroke-width: 1.5;" x1="1864.5" x2="1864.5" y1="256.8594" y2="288.5698"/><polygon fill="#A80036" points="1860.5,278.5698,1864.5,288.5698,1868.5,278.5698,1864.5,282.5698" style="stroke: #A80036; stroke-width: 1.0;"/><line style="stroke: #A80036; stroke-width: 1.5;" x1="1864.5" x2="1864.5" y1="460.4761" y2="534.4448"/><polygon fill="#A80036" points="1860.5,524.4448,1864.5,534.4448,1868.5,524.4448,1864.5,528.4448" style="stroke: #A80036; stroke-width: 1.0;"/><line style="stroke: #A80036; stroke-width: 1.5;" x1="2046.5" x2="2046.5" y1="256.8594" y2="288.5698"/><polygon fill="#A80036" points="2042.5,278.5698,2046.5,288.5698,2050.5,278.5698,2046.5,282.5698" style="stroke: #A80036; stroke-width: 1.0;"/><line style="stroke: #A80036; stroke-width: 1.5;" x1="2046.5" x2="2046.5" y1="391.5073" y2="534.4448"/><polygon fill="#A80036" points="2042.5,524.4448,2046.5,534.4448,2050.5,524.4448,2046.5,528.4448" style="stroke: #A80036; stroke-width: 1.0;"/><line style="stroke: #A80036; stroke-width: 1.5;" x1="2228" x2="2228" y1="256.8594" y2="288.5698"/><polygon fill="#A80036" points="2224,278.5698,2228,288.5698,2232,278.5698,2228,282.5698" style="stroke: #A80036; stroke-width: 1.0;"/><line style="stroke: #A80036; stroke-width: 1.5;" x1="2228" x2="2228" y1="391.5073" y2="534.4448"/><polygon fill="#A80036" points="2224,524.4448,2228,534.4448,2232,524.4448,2228,528.4448" style="stroke: #A80036; stroke-width: 1.0;"/><line style="stroke: #A80036; stroke-width: 1.5;" x1="2374" x2="2374" y1="256.8594" y2="288.5698"/><polygon fill="#A80036" points="2370,278.5698,2374,288.5698,2378,278.5698,2374,282.5698" style="stroke: #A80036; stroke-width: 1.0;"/><line style="stroke: #A80036; stroke-width: 1.5;" x1="2374" x2="2374" y1="514.4448" y2="534.4448"/><polygon fill="#A80036" points="2370,524.4448,2374,534.4448,2378,524.4448,2374,528.4448" style="stroke: #A80036; stroke-width: 1.0;"/><line style="stroke: #A80036; stroke-width: 1.5;" x1="201" x2="333.5" y1="244.8594" y2="244.8594"/><polygon fill="#A80036" points="323.5,240.8594,333.5,244.8594,323.5,248.8594,327.5,244.8594" style="stroke: #A80036; stroke-width: 1.0;"/><line style="stroke: #A80036; stroke-width: 1.5;" x1="505.5" x2="660.5" y1="244.8594" y2="244.8594"/><polygon fill="#A80036" points="650.5,240.8594,660.5,244.8594,650.5,248.8594,654.5,244.8594" style="stroke: #A80036; stroke-width: 1.0;"/><line style="stroke: #A80036; stroke-width: 1.5;" x1="936.5" x2="956.5" y1="244.8594" y2="244.8594"/><polygon fill="#A80036" points="946.5,240.8594,956.5,244.8594,946.5,248.8594,950.5,244.8594" style="stroke: #A80036; stroke-width: 1.0;"/><line style="stroke: #A80036; stroke-width: 1.5;" x1="1223.5" x2="1243.5" y1="244.8594" y2="244.8594"/><polygon fill="#A80036" points="1233.5,240.8594,1243.5,244.8594,1233.5,248.8594,1237.5,244.8594" style="stroke: #A80036; stroke-width: 1.0;"/><line style="stroke: #A80036; stroke-width: 1.5;" x1="1405.5" x2="1425.5" y1="244.8594" y2="244.8594"/><polygon fill="#A80036" points="1415.5,240.8594,1425.5,244.8594,1415.5,248.8594,1419.5,244.8594" style="stroke: #A80036; stroke-width: 1.0;"/><line style="stroke: #A80036; stroke-width: 1.5;" x1="1578.5" x2="1598.5" y1="244.8594" y2="244.8594"/><polygon fill="#A80036" points="1588.5,240.8594,1598.5,244.8594,1588.5,248.8594,1592.5,244.8594" style="stroke: #A80036; stroke-width: 1.0;"/><line style="stroke: #A80036; stroke-width: 1.5;" x1="1765.5" x2="1785.5" y1="244.8594" y2="244.8594"/><polygon fill="#A80036" points="1775.5,240.8594,1785.5,244.8594,1775.5,248.8594,1779.5,244.8594" style="stroke: #A80036; stroke-width: 1.0;"/><line style="stroke: #A80036; stroke-width: 1.5;" x1="1943.5" x2="1963.5" y1="244.8594" y2="244.8594"/><polygon fill="#A80036" points="1953.5,240.8594,1963.5,244.8594,1953.5,248.8594,1957.5,244.8594" style="stroke: #A80036; stroke-width: 1.0;"/><line style="stroke: #A80036; stroke-width: 1.5;" x1="2129.5" x2="2149.5" y1="244.8594" y2="244.8594"/><polygon fill="#A80036" points="2139.5,240.8594,2149.5,244.8594,2139.5,248.8594,2143.5,244.8594" style="stroke: #A80036; stroke-width: 1.0;"/><line style="stroke: #A80036; stroke-width: 1.5;" x1="2306.5" x2="2326.5" y1="244.8594" y2="244.8594"/><polygon fill="#A80036" points="2316.5,240.8594,2326.5,244.8594,2316.5,248.8594,2320.5,244.8594" style="stroke: #A80036; stroke-width: 1.0;"/><line style="stroke: #A80036; stroke-width: 1.5;" x1="1434.75" x2="1434.75" y1="212.8594" y2="217.8594"/><line style="stroke: #A80036; stroke-width: 1.5;" x1="1434.75" x2="110.5" y1="217.8594" y2="217.8594"/><line style="stroke: #A80036; stroke-width: 1.5;" x1="110.5" x2="110.5" y1="217.8594" y2="232.8594"/><polygon fill="#A80036" points="106.5,222.8594,110.5,232.8594,114.5,222.8594,110.5,226.8594" style="stroke: #A80036; stroke-width: 1.0;"/><line style="stroke: #A80036; stroke-width: 1.5;" x1="2644.5" x2="2644.5" y1="485.9917" y2="534.4448"/><polygon fill="#A80036" points="2640.5,524.4448,2644.5,534.4448,2648.5,524.4448,2644.5,528.4448" style="stroke: #A80036; stroke-width: 1.0;"/><line style="stroke: #A80036; stroke-width: 1.5;" x1="110.5" x2="2644.5" y1="534.4448" y2="534.4448"/><line style="stroke: #A80036; stroke-width: 1.5;" x1="1434.75" x2="1434.75" y1="534.4448" y2="554.4448"/><polygon fill="#A80036" points="1430.75,544.4448,1434.75,554.4448,1438.75,544.4448,1434.75,548.4448" style="stroke: #A80036; stroke-width: 1.0;"/><!--MD5=[ea68d069cf8b41844075bbcb1122f876]
@startuml
title Calculate() operation - Calculator Class 


start

:get Input; 
note right: calculate(input)//parameter

:object data members: val:String,reg:String,tmpReg:boolean, reg:String; 
note left: declared at class level
:val= " ", reg= " ", op="", tmpReg=false;
note right: initialised at class level

if (input is 0 to 9 && !tmpReg ) then (yes)
  :val+=input;
  note right: concatenate value
  :return val;
else if(input is 0 to 9 && tmpReg) then (yes)
  :reg+=input;
  note right: concatenate tmpReg
  :return reg;
else if(input is "." && !tmpReg && !val.contains(".")) then (yes)
  :val+=input;
  :return val;
else if(input is "." && tmpReg &&!val.contains(".")) then (yes)
  :reg+=input;
  :return reg;
else if(input is op && !tmpReg ) then (yes)
  :op=input;
  :tmpReg=true;
  :reg="";
  :return val;
else if(input is op && tmpReg) then (yes)
  :perform operation;
  :op=input;
  :reg="";
  :return val;
else if(input is "=" && !tmpReg ) then (yes)
  :return val;
else if(input is "=" && tmpReg) then (yes)
  :perform operation;
  :reg="";
  :return val;
else if(input is "C" && !tmpReg ) then (yes)
  :val="";
  :return "0";
else if(input is "C" && tmpReg) then (yes)
  :reg="";
  :return "0";
else if(input is "AC") then (yes)
  :val="";
  :reg="";
  :tmpReg=false;
  :return "0";
else (no)
  if(tmpReg && reg.length()>0)then (yes)
    :return reg;
  else if(val.length()>0)then (yes)
    :return val;
  else
    :return "0";
  endif
endif

stop
@enduml

PlantUML version 1.2020.20beta7(Unknown compile time)
(GPL source distribution)
Java Runtime: Java(TM) SE Runtime Environment
JVM: Java HotSpot(TM) 64-Bit Server VM
Default Encoding: UTF-8
Language: en
Country: US
--></g></svg>